<?xml version="1.0" encoding="UTF-8"?>
<svg width="38px" height="38px" viewBox="0 0 38 38" version="1.1" xmlns="http://www.w3.org/2000/svg">
    <!-- Generator: sketchtool 53.1 (72631) - https://sketchapp.com -->
    <title>95C22358-9F94-4A07-B789-B7726969F8E3</title>
    <desc>Created with sketchtool.</desc>
    <g id="Page-1" stroke="none" stroke-width="1" fill="none" fill-rule="evenodd">
        <g id="Desktop-HD-_Definition-POPup-2" transform="translate(-1476.000000, -116.000000)" fill="#FFFFFF">
            <g id="popup_new-inquiry-type" transform="translate(521.000000, 116.000000)">
                <g id="Round-Buttons-/-Close-38px" transform="translate(955.000000, 0.000000)">
                    <g>
                        <path d="M0,19 C0,8.50658975 8.50428254,-2.27373675e-13 19,-2.27373675e-13 L19,-2.27373675e-13 C29.4934102,-2.27373675e-13 38,8.50428254 38,19 L38,19 C38,29.4934102 29.4957175,38 19,38 L19,38 C8.50658975,38 0,29.4957175 0,19 L0,19 Z" id="Background" fill-opacity="0"></path>
                        <polygon id="Icon" points="25 14.489419 23.510581 13 19 17.510581 14.489419 13 13 14.489419 17.510581 19 13 23.510581 14.489419 25 19 20.489419 23.510581 25 25 23.510581 20.489419 19"></polygon>
                    </g>
                </g>
            </g>
        </g>
    </g>
</svg>